# xmcd
#
# Track frame offsets:
#	150
#	15066
#	30863
#	49940
#	65193
#	82897
#	100693
#	114913
#	129536
#	148035
#	164880
#	181861
#	200450
#	223313
#	238774
#	254081
#
# Disc length: 3656 seconds
#
# Revision: 1
# Processed by: cddbd v1.5.2PL0 Copyright (c) Steve Scherf et al.
# Submitted via: audiograbber 1.83.01
#
DISCID=e10e4610
DTITLE=JonesTM - HC200734
DYEAR=2007
DGENRE=Country
TTITLE0=Eagles - How Long
TTITLE1=Laura Bryna - Make A Wish
TTITLE2=Kenny Chesney - Don't Blink
TTITLE3=Andy Griggs - What If It's Me
TTITLE4=Trent Willmon - There Is A God
TTITLE5=Keith Urban - Everybody [Single Edit]
TTITLE6=Bucky Covington - It's Good To Be Us [Single Version]
TTITLE7=Kellie Pickler - Things That Never Cross A Man's Mind
TTITLE8=Chrisette Michele - If I Have My Way [Album Version]
TTITLE9=NLT - She Said, I Said (Time We Let Go) [Album Version]
TTITLE10=Paris Bennett Feat. J. Isaac - Duet [Album Version]
TTITLE11=Luther Vandross - There's Only You [Radio Edit]
TTITLE12=Ann Nesby - I Apologize [Full Version]
TTITLE13=Jack Prybylski - Window Shopping [Radio Edit]
TTITLE14=Justin Young - Sunny
TTITLE15=Chris Botti - Venice
EXTD=
EXTT0=
EXTT1=
EXTT2=
EXTT3=
EXTT4=
EXTT5=
EXTT6=
EXTT7=
EXTT8=
EXTT9=
EXTT10=
EXTT11=
EXTT12=
EXTT13=
EXTT14=
EXTT15=
PLAYORDER=
